<svg height="170.139262" viewBox="0 0 37.961334 11.264" width="587.753814" xmlns="http://www.w3.org/2000/svg" xmlns:xlink="http://www.w3.org/1999/xlink"><clipPath id="a"><path d="m108.071 165.538h28.471v8.448h-28.471z"/></clipPath><g transform="matrix(1.3333333 0 0 -1.3333333 -144.09466 231.98133)"><path d="m108.071 165.538h28.471v8.448h-28.471zm.313 8.135h27.845v-8.043h-27.845z" fill="#fff"/><path d="m108.228 165.538h28.157v8.292h-28.157z" fill="#18398a"/><path d="m0 0 .001-4.155 4.122 4.155z" fill="#ed1c24" transform="translate(108.2277 173.8296)"/><g clip-path="url(#a)" fill="#fff"><path d="m0 0c0 1.796-1.452 3.247-3.179 3.247-1.726 0-3.178-1.451-3.178-3.247 0-1.795 1.452-3.247 3.178-3.247 1.727 0 3.179 1.452 3.179 3.247m-1.649 0c0-.842-.687-1.581-1.53-1.581-.833 0-1.528.705-1.528 1.581s.695 1.581 1.528 1.581c.843 0 1.53-.739 1.53-1.581m-4.785-3.093-1.186 2.681c.542.36.842.859.842 1.52 0 1.315-.85 1.985-2.079 1.985h-2.122v-6.186h1.615v2.552h.017l1.091-2.552zm-1.959 4.047c0-.559-.37-.765-.971-.765v1.529c.601 0 .971-.206.971-.764m-4.313.575h1.264l-.164 1.564h-3.814l-.163-1.564h1.263v-4.622h1.614zm-5.076-2.99v.645h1.271v1.632h-1.271v.644h1.95l-.25 1.633h-3.316v-6.186h3.359l.421 1.632zm-3.815-1.632h1.65l-.851 6.186h-1.288l-1.126-2.406-1.091 2.406-1.504-1.504-.669-4.682h1.649l.361 2.543h.017l1.237-2.586 1.237 2.586h.017z" transform="translate(135.5723 169.6519)"/><path d="m0 0-.1.103.232.227-.138.142-.233-.227-.09.094.287.279-.143.147-.479-.466.621-.638.479.466-.148.153zm-.6.075-.143.147-.478-.466.62-.638.479.466-.148.153-.288-.28-.1.104.232.226-.138.142-.233-.226-.09.093zm-.501-.574c-.061.062-.141.094-.227.076-.078-.015-.147-.067-.202-.121l-.325-.316.621-.638.198.193-.237.244.061.059.33-.153.218.212-.386.166c.042.107.03.194-.051.278m-.199-.203c.053-.055.008-.111-.035-.153l-.071-.07-.118.122.079.077c.018.018.039.038.063.046.03.009.061-.001.082-.022m-.446-.347-.148.151-.461-.448.621-.638.19.185-.232.239.207.202-.139.143-.208-.202-.101.104z" transform="translate(110.7405 172.9285)"/></g></g></svg>